<?xml version="1.0" standalone="no"?>
<!DOCTYPE svg PUBLIC "-//W3C//DTD SVG 20010904//EN"
 "http://www.w3.org/TR/2001/REC-SVG-20010904/DTD/svg10.dtd">
<svg version="1.0" xmlns="http://www.w3.org/2000/svg"
 width="512.000000pt" height="512.000000pt" viewBox="0 0 512.000000 512.000000"
 preserveAspectRatio="xMidYMid meet">

<g transform="translate(0.000000,512.000000) scale(0.100000,-0.100000)"
fill="#000000" stroke="none">
<path fill="#cdd44b" d="M695 5107 c-50 -19 -99 -54 -123 -87 -53 -71 -52 -58 -52 -839 0
-861 7 -973 85 -1296 90 -376 195 -625 344 -819 106 -139 549 -615 594 -638
30 -16 60 -22 108 -23 l65 0 70 -64 c38 -34 106 -88 152 -118 l82 -55 0 -131
c0 -107 -4 -140 -19 -172 -20 -44 -62 -90 -101 -110 -14 -7 -194 -63 -400
-124 -430 -128 -481 -147 -570 -206 -75 -50 -106 -92 -118 -156 -19 -103 26
-195 117 -242 l55 -27 1576 0 1576 0 55 27 c91 47 135 139 117 242 -20 116
-146 202 -400 276 -93 27 -98 27 -123 11 -38 -25 -50 -57 -34 -92 12 -26 30
-34 149 -74 135 -45 210 -81 242 -116 28 -32 27 -75 -2 -104 -20 -20 -33 -20
-1580 -20 -1547 0 -1560 0 -1580 20 -31 31 -30 72 2 107 43 47 146 85 537 202
223 67 425 131 448 142 63 30 134 104 169 174 26 53 29 72 33 172 2 62 6 113
9 113 3 0 38 -11 77 -25 200 -69 429 -71 619 -5 33 11 62 20 66 20 4 0 9 -48
11 -107 4 -95 8 -115 33 -168 35 -71 104 -143 166 -173 60 -28 305 -102 342
-102 15 0 37 9 48 20 25 25 26 81 2 103 -9 8 -80 34 -157 57 -159 48 -179 57
-219 97 -54 53 -66 95 -66 233 l0 125 78 52 c42 28 114 84 160 124 81 70 85
72 140 74 97 3 118 20 388 316 269 293 337 376 409 499 82 141 160 353 231
629 75 292 94 487 94 964 l0 358 -25 24 c-31 32 -69 32 -100 0 -22 -22 -25
-32 -25 -105 l0 -80 -315 0 -315 0 0 446 c0 286 4 452 10 465 24 44 55 49 311
49 l241 0 34 -34 34 -34 0 -231 c0 -150 4 -239 11 -255 23 -51 103 -55 128 -7
7 12 11 109 11 259 0 271 -6 305 -69 370 -74 76 -80 77 -401 77 l-285 0 -46
-27 c-53 -31 -92 -74 -116 -127 -15 -31 -18 -91 -21 -479 l-3 -443 -75 70
c-222 212 -479 341 -779 393 -154 26 -408 21 -550 -11 -283 -63 -513 -186
-720 -382 l-75 -72 0 154 c0 204 -14 248 -80 248 -67 0 -80 -43 -80 -261 l0
-168 -315 0 -315 0 0 446 0 446 34 34 34 34 243 0 c328 0 315 7 321 -194 3
-104 5 -109 31 -132 34 -29 56 -30 91 -3 26 20 26 21 26 157 0 130 -2 139 -28
187 -31 56 -95 109 -150 125 -53 14 -538 12 -577 -3z m2081 -752 c108 -19 205
-47 302 -87 71 -30 85 -48 35 -48 -52 0 -279 -52 -396 -91 -166 -55 -327 -134
-601 -296 -313 -185 -398 -249 -525 -403 -30 -36 -59 -65 -65 -65 -5 0 -24 22
-40 49 -30 47 -30 51 -34 205 l-4 156 53 70 c200 264 504 450 834 509 109 19
331 20 441 1z m701 -352 c50 -49 111 -116 136 -150 l47 -61 0 -169 0 -169 -30
-47 c-16 -26 -34 -47 -39 -47 -5 0 -16 11 -25 25 -28 43 -126 148 -190 203
-210 182 -508 300 -764 303 l-77 1 60 29 c179 88 508 163 727 168 l66 1 89
-87z m-2175 -350 c6 -244 14 -274 102 -382 102 -124 101 -119 104 -476 3 -304
3 -312 -18 -338 -12 -15 -27 -27 -35 -27 -16 0 -133 205 -159 280 -13 39 -20
93 -24 190 -4 119 -7 138 -25 158 -28 30 -71 29 -104 -4 l-26 -26 6 -141 c8
-216 10 -222 327 -767 290 -499 294 -509 244 -549 -39 -31 -69 -26 -114 17
-84 81 -474 518 -529 591 -118 159 -205 370 -291 706 -66 257 -90 466 -90 778
l0 197 314 0 314 0 4 -207z m3148 10 c0 -312 -24 -522 -90 -778 -86 -334 -174
-548 -289 -702 -56 -77 -446 -512 -531 -595 -45 -43 -75 -48 -114 -17 -50 40
-46 50 244 549 317 545 319 551 327 767 l6 141 -26 26 c-33 33 -76 34 -104 4
-18 -20 -21 -39 -25 -158 -4 -97 -11 -151 -24 -190 -26 -75 -143 -280 -159
-280 -8 0 -23 12 -35 27 -21 26 -21 34 -18 338 3 357 2 352 104 476 88 108 96
138 102 382 l4 207 314 0 314 0 0 -197z m-1692 62 c148 -28 286 -84 412 -167
87 -57 229 -195 285 -277 l45 -66 -20 -63 c-18 -58 -20 -92 -20 -375 0 -307 1
-313 24 -362 22 -48 61 -92 98 -111 14 -8 -7 -50 -155 -304 -164 -281 -172
-298 -175 -356 -3 -46 1 -73 16 -107 l21 -47 -62 -56 c-74 -67 -195 -148 -294
-198 -197 -98 -427 -112 -634 -36 -99 36 -269 136 -369 216 -43 35 -82 68 -85
74 -4 6 1 30 10 55 12 30 16 63 13 103 -4 54 -16 78 -175 352 l-171 294 27 17
c39 23 76 72 96 122 14 38 16 84 13 368 -3 279 -6 330 -21 369 l-18 44 45 66
c99 144 293 301 463 374 70 30 196 66 273 79 65 11 284 6 358 -8z"/>
<path fill="#72984b" d="M1800 2530 c-12 -12 -20 -33 -20 -55 0 -29 6 -40 41 -65 121 -87 289
-101 424 -35 95 46 124 94 88 143 -29 39 -65 39 -141 0 -55 -27 -77 -33 -132
-33 -55 0 -77 5 -128 33 -72 37 -104 40 -132 12z"/>
<path fill="#72984b" d="M2791 2524 c-47 -60 -7 -113 122 -166 39 -16 74 -21 142 -21 101 -1
171 20 244 73 35 25 41 36 41 65 0 42 -29 75 -65 75 -14 0 -53 -15 -87 -32
-52 -28 -73 -33 -128 -33 -56 0 -77 5 -130 33 -77 40 -111 41 -139 6z"/>
<path fill="#72984b" d="M2295 1780 c-24 -26 -23 -74 0 -100 29 -32 134 -79 203 -91 45 -8 79
-8 125 0 68 12 173 59 202 91 40 44 10 120 -46 120 -16 0 -57 -14 -91 -32 -88
-45 -167 -45 -255 0 -72 37 -112 40 -138 12z"/>
</g>
</svg>
