<?xml version="1.0" standalone="no"?>
<!DOCTYPE svg PUBLIC "-//W3C//DTD SVG 20010904//EN"
 "http://www.w3.org/TR/2001/REC-SVG-20010904/DTD/svg10.dtd">
<svg version="1.0" xmlns="http://www.w3.org/2000/svg"
 width="512.000000pt" height="512.000000pt" viewBox="0 0 512.000000 512.000000"
 preserveAspectRatio="xMidYMid meet">

<g transform="translate(0.000000,512.000000) scale(0.100000,-0.100000)"
fill="#000000" stroke="none">
<path fill="#cdd44b" d="M425 5106 c-177 -45 -316 -187 -354 -364 -12 -57 -16 -767 -5 -797
17 -44 110 -48 131 -7 4 9 10 190 13 402 5 368 6 387 27 432 30 66 96 133 162
165 l56 28 2105 0 2105 0 47 -22 c66 -30 133 -96 165 -162 l28 -56 0 -915 0
-915 -24 -52 c-31 -70 -111 -144 -185 -172 -52 -19 -74 -21 -212 -19 l-154 3
131 165 c82 104 145 195 169 245 105 213 53 405 -133 491 -60 28 -67 29 -217
29 -85 0 -276 -6 -425 -12 -148 -7 -336 -16 -416 -19 l-146 -6 -7 72 c-6 57
-13 77 -31 96 -31 31 -69 30 -101 -1 -24 -24 -25 -29 -19 -113 4 -48 8 -93 11
-100 6 -19 -101 -97 -201 -147 -137 -68 -223 -88 -385 -88 -107 0 -152 5 -215
22 -99 26 -242 96 -316 154 l-55 44 8 89 c4 49 17 125 28 169 21 85 84 221
124 269 l24 29 42 -41 c88 -84 218 -132 360 -132 142 0 272 48 359 132 48 45
39 48 102 -39 34 -49 70 -63 108 -42 62 35 50 90 -42 201 -48 58 -48 58 -42
116 15 137 -58 281 -185 362 -131 84 -316 109 -465 63 -208 -65 -341 -240
-320 -425 l6 -57 -53 -65 c-96 -116 -168 -294 -190 -473 l-12 -95 -146 6 c-80
3 -266 12 -415 19 -148 6 -340 12 -425 12 -150 0 -157 -1 -217 -29 -102 -47
-166 -129 -183 -232 -23 -141 31 -265 219 -504 l131 -165 -154 -3 c-138 -2
-160 0 -212 19 -74 28 -154 102 -185 172 -24 51 -24 59 -29 438 -5 363 -6 388
-24 408 -26 28 -79 28 -106 -1 -19 -21 -20 -33 -20 -389 0 -229 4 -388 11
-421 35 -168 181 -323 338 -361 l51 -12 0 -1228 0 -1228 25 -24 24 -25 2051 0
2051 0 24 25 25 24 0 566 0 566 -25 24 c-31 32 -69 32 -100 0 l-25 -24 0 -516
0 -515 -526 0 -525 0 5 43 c4 23 15 132 26 242 70 693 161 1060 369 1475 80
159 162 298 274 467 l82 123 148 0 147 0 0 -515 0 -516 25 -24 c31 -32 69 -32
100 0 l25 24 0 518 0 518 51 12 c160 39 306 197 339 368 8 43 10 319 8 960 -3
892 -3 900 -24 957 -51 133 -159 241 -292 292 l-57 21 -2105 2 c-1662 1 -2116
-1 -2155 -11z m2265 -590 c149 -51 227 -163 200 -285 -10 -46 -22 -64 -69
-112 -48 -47 -69 -61 -125 -78 -88 -27 -184 -27 -272 0 -56 17 -77 31 -125 78
-47 48 -59 66 -69 112 -22 100 26 194 130 253 97 54 228 67 330 32z m-1355
-1095 c165 -7 343 -15 395 -19 l95 -7 8 -70 c4 -38 11 -85 16 -102 5 -18 9
-33 8 -33 -1 -1 -160 -11 -352 -24 -206 -13 -360 -28 -373 -35 -24 -13 -37
-50 -28 -83 11 -46 301 -363 473 -520 188 -169 311 -258 422 -304 221 -89 394
18 409 253 l5 74 31 -8 c41 -10 192 -10 234 0 l32 9 0 -55 c0 -144 74 -260
186 -293 157 -45 337 44 640 318 170 153 469 480 480 526 9 33 -4 70 -28 83
-14 7 -166 22 -373 35 -192 13 -351 23 -352 24 -1 0 3 15 8 33 5 17 12 64 16
102 l8 70 95 7 c83 6 368 18 836 35 116 5 151 2 192 -11 96 -32 135 -111 107
-219 -20 -80 -49 -125 -199 -316 -275 -348 -444 -605 -596 -906 -229 -452
-326 -847 -400 -1635 -5 -63 -13 -134 -16 -157 l-5 -43 -749 0 -749 0 -5 43
c-4 23 -13 114 -22 202 -35 370 -76 646 -99 682 -31 46 -106 39 -125 -13 -7
-18 -6 -52 5 -113 21 -122 52 -369 70 -556 8 -88 17 -179 21 -203 l5 -42 -525
0 -526 0 0 1175 0 1175 148 0 147 0 82 -123 c155 -232 257 -414 346 -617 52
-119 126 -327 142 -397 17 -81 114 -98 144 -26 10 24 7 44 -20 133 -129 436
-381 883 -800 1415 -163 208 -183 239 -204 322 -26 103 10 185 98 217 47 17
114 17 642 -3z m755 -190 c139 -72 248 -103 405 -116 180 -16 412 39 574 134
29 18 55 30 57 28 2 -2 -3 -26 -11 -54 -85 -285 -349 -543 -555 -543 -184 0
-425 213 -525 463 -36 90 -50 141 -38 135 4 -2 46 -23 93 -47z m-138 -260 c49
-91 148 -212 219 -270 l58 -46 -286 -3 -287 -2 -39 37 c-70 68 -279 301 -278
309 1 8 390 39 526 42 l50 2 37 -69z m1618 48 c113 -7 208 -15 212 -18 4 -4
-64 -84 -153 -179 l-160 -172 -292 0 c-231 1 -289 3 -276 13 116 91 207 195
267 309 l37 70 80 -6 c44 -3 172 -10 285 -17z m-1310 -537 c0 -65 -43 -128
-96 -138 -63 -12 -199 47 -294 126 l-35 29 213 1 c196 0 212 -1 212 -18z m990
-12 c-95 -79 -231 -138 -294 -126 -40 8 -73 41 -86 87 -21 73 -34 69 203 69
l212 -1 -35 -29z"/>
<path fill="#72984b" d="M2279 2096 c-69 -20 -147 -66 -185 -110 -138 -161 -31 -373 212 -423
281 -57 528 158 425 370 -65 133 -279 210 -452 163z m244 -165 c156 -76 66
-227 -134 -225 -85 0 -167 38 -194 88 -16 29 -17 38 -5 65 37 91 215 129 333
72z"/>
<path fill="#72984b" d="M2603 1490 c-99 -26 -178 -67 -233 -120 -57 -56 -83 -109 -88 -182
-21 -278 456 -448 795 -283 123 60 192 147 201 251 17 199 -206 355 -502 353
-65 0 -127 -7 -173 -19z m366 -158 c154 -60 201 -148 125 -232 -95 -105 -326
-141 -503 -79 -86 29 -161 100 -161 150 0 74 76 139 202 174 78 22 266 15 337
-13z"/>
<path fill="#72984b" d="M2397 720 c-129 -41 -208 -141 -193 -245 21 -135 203 -234 381 -206
131 21 226 89 254 182 56 187 -204 346 -442 269z m206 -141 c21 -5 52 -23 70
-38 28 -26 30 -31 20 -54 -43 -93 -293 -93 -335 -1 -10 22 -8 28 14 50 48 48
147 67 231 43z"/>
</g>
</svg>
