<?xml version="1.0" standalone="no"?>
<!DOCTYPE svg PUBLIC "-//W3C//DTD SVG 20010904//EN"
 "http://www.w3.org/TR/2001/REC-SVG-20010904/DTD/svg10.dtd">
<svg version="1.0" xmlns="http://www.w3.org/2000/svg"
 width="512.000000pt" height="512.000000pt" viewBox="0 0 512.000000 512.000000"
 preserveAspectRatio="xMidYMid meet">

<g transform="translate(0.000000,512.000000) scale(0.100000,-0.100000)"
fill="#72984b" stroke="none">
<path d="M2375 5054 c-16 -2 -73 -9 -125 -15 -435 -49 -869 -231 -1240 -518
-110 -85 -327 -302 -412 -412 -278 -358 -445 -750 -515 -1206 -23 -150 -23
-536 0 -686 112 -727 493 -1334 1087 -1732 330 -221 669 -348 1085 -407 135
-19 503 -16 650 5 373 55 731 192 1035 395 617 413 996 1025 1102 1777 17 117
17 493 0 610 -91 647 -391 1200 -867 1602 -357 302 -802 502 -1265 568 -108
16 -467 29 -535 19z m600 -1281 c-9 -21 -147 -355 -308 -743 l-293 -705 194
-3 c107 -1 197 0 200 3 3 2 37 125 77 272 l71 268 227 3 227 2 0 -275 0 -275
110 0 110 0 0 -280 0 -280 -110 0 -110 0 -2 -222 -3 -223 -317 -3 -318 -2 0
225 0 225 -600 0 -600 0 0 64 c0 61 16 101 384 987 211 508 391 941 399 962
l16 37 330 0 331 0 -15 -37z"/>
</g>
</svg>
