<?xml version="1.0" standalone="no"?>
<!DOCTYPE svg PUBLIC "-//W3C//DTD SVG 20010904//EN"
 "http://www.w3.org/TR/2001/REC-SVG-20010904/DTD/svg10.dtd">
<svg version="1.0" xmlns="http://www.w3.org/2000/svg"
 width="512.000000pt" height="512.000000pt" viewBox="0 0 512.000000 512.000000"
 preserveAspectRatio="xMidYMid meet">

<g transform="translate(0.000000,512.000000) scale(0.100000,-0.100000)"
fill="#000000" stroke="none">
<path fill="#cdd44b" d="M2985 4781 c-45 -20 -74 -57 -85 -107 -5 -21 1 -86 16 -176 13 -79
24 -151 24 -160 0 -13 -13 -21 -47 -30 -61 -15 -143 -94 -161 -154 -32 -110 9
-216 108 -279 l38 -24 -10 -51 c-21 -115 -84 -212 -188 -290 -130 -97 -209
-200 -253 -330 -21 -64 -22 -79 -27 -694 l-5 -629 -42 -18 -41 -17 -16 70
c-32 143 -127 308 -235 411 l-61 58 0 236 c0 156 -4 250 -12 277 -16 55 -99
138 -154 154 -28 8 -126 12 -298 12 l-256 0 0 85 c0 65 3 85 14 85 7 0 45 16
83 35 86 43 144 103 186 193 29 61 32 76 32 162 -1 83 -5 105 -33 176 -39 97
-143 257 -242 371 -72 83 -99 100 -144 89 -59 -15 -281 -316 -338 -460 -28
-71 -32 -93 -33 -176 0 -86 3 -101 32 -162 42 -90 100 -150 186 -193 38 -19
76 -35 83 -35 11 0 14 -20 14 -85 l0 -85 -256 0 c-172 0 -270 -4 -298 -12 -55
-16 -138 -99 -154 -154 -9 -31 -12 -272 -12 -978 l0 -936 -95 0 c-90 0 -98 -2
-122 -26 -25 -25 -25 -26 -22 -168 4 -141 5 -143 41 -218 45 -91 103 -147 196
-191 l67 -32 2095 0 2095 0 67 32 c93 44 151 100 196 191 36 75 37 77 41 218
3 142 3 143 -22 168 -25 25 -31 26 -142 26 -90 0 -115 3 -111 13 2 6 12 36 22
66 42 136 -27 295 -156 361 -32 16 -40 25 -34 38 4 9 16 42 27 72 48 135 -22
303 -154 371 -31 15 -39 24 -33 37 4 9 16 42 27 72 50 141 -27 312 -170 377
l-53 24 0 338 c0 304 -2 346 -20 415 -37 146 -118 261 -258 365 -106 78 -169
175 -190 291 l-10 51 38 24 c74 47 120 126 120 205 0 107 -83 207 -192 234
-34 8 -34 4 -4 184 25 154 24 189 -13 240 -39 56 -74 62 -354 62 -223 0 -257
-3 -292 -19z m515 -157 c0 -17 -36 -240 -45 -281 -5 -23 -7 -23 -175 -23 -168
0 -170 0 -175 23 -9 41 -45 264 -45 281 0 14 23 16 220 16 197 0 220 -2 220
-16z m155 -489 c16 -15 25 -36 25 -55 0 -19 -9 -40 -25 -55 l-24 -25 -351 0
-351 0 -24 25 c-16 15 -25 36 -25 55 0 19 9 40 25 55 l24 25 351 0 351 0 24
-25z m-2398 -163 c189 -243 228 -403 126 -522 -30 -35 -79 -70 -98 -70 -3 0
-5 38 -5 85 0 78 -2 88 -25 110 -15 16 -36 25 -55 25 -19 0 -40 -9 -55 -25
-23 -22 -25 -32 -25 -110 0 -47 -2 -85 -5 -85 -19 0 -68 35 -98 70 -102 119
-63 279 126 522 29 37 54 68 57 68 3 0 28 -31 57 -68z m2267 -154 c23 -109 33
-142 62 -205 40 -84 115 -170 212 -242 111 -82 170 -176 193 -306 11 -63 10
-66 -12 -84 -78 -65 -218 -106 -329 -98 -130 9 -212 48 -355 168 -77 64 -180
115 -275 135 -107 23 -252 15 -350 -19 -40 -15 -76 -25 -78 -22 -2 2 11 31 29
65 22 42 55 82 103 123 150 133 214 203 249 279 30 64 40 97 63 206 l4 22 240
0 240 0 4 -22z m-542 -789 c81 -17 166 -62 242 -127 139 -120 254 -170 417
-179 107 -6 215 12 307 53 l52 23 0 -199 0 -199 -322 -3 -323 -3 -64 -35 c-66
-36 -124 -100 -152 -170 -22 -56 -18 -186 9 -239 12 -25 22 -46 22 -48 0 -1
-18 -12 -40 -23 -54 -27 -105 -80 -137 -143 -23 -45 -27 -64 -27 -137 0 -68 4
-94 22 -130 21 -41 21 -46 6 -55 -109 -66 -148 -109 -178 -198 -25 -74 -19
-148 19 -239 7 -17 -7 -18 -201 -18 l-209 0 35 27 c105 79 218 226 267 345 52
127 65 193 70 370 l6 166 -28 28 c-27 26 -28 27 -121 20 l-94 -6 0 507 0 508
49 33 c111 72 244 98 373 71z m-1167 -174 l25 -24 0 -235 0 -235 -61 -58
c-112 -106 -209 -280 -239 -425 l-11 -56 -68 28 c-93 38 -186 60 -285 67 -82
6 -85 5 -111 -21 l-28 -28 6 -166 c5 -179 21 -261 72 -376 55 -125 161 -260
265 -339 l35 -27 -427 0 -428 0 0 935 0 936 25 24 24 25 591 0 591 0 24 -25z
m2329 -629 c18 -8 46 -31 62 -52 24 -31 29 -47 29 -95 0 -62 -17 -94 -69 -133
-26 -20 -42 -21 -384 -24 -234 -2 -370 1 -394 8 -45 13 -95 68 -104 115 -14
75 24 152 91 181 45 20 722 20 769 0z m-2160 -71 c95 -111 154 -242 170 -377
l7 -57 -42 -38 c-51 -46 -146 -172 -174 -231 -11 -23 -22 -42 -25 -42 -3 0
-14 19 -25 42 -28 59 -123 185 -174 231 l-43 39 7 56 c10 84 49 199 90 266 49
81 123 166 145 166 9 0 39 -25 64 -55z m2320 -409 c18 -8 46 -31 62 -52 24
-31 29 -47 29 -95 0 -62 -17 -94 -69 -133 -27 -20 -40 -21 -544 -24 -345 -2
-529 0 -554 8 -45 13 -95 68 -104 115 -14 75 24 152 91 181 45 20 1041 20
1089 0z m-2967 -21 c296 -94 503 -378 503 -691 l0 -64 -29 0 c-47 0 -180 46
-251 87 -79 46 -213 178 -259 256 -57 97 -91 213 -98 332 l-6 105 31 0 c17 0
66 -11 109 -25z m1303 -39 c0 -313 -207 -597 -503 -691 -43 -14 -92 -25 -109
-25 l-31 0 6 105 c7 119 41 235 98 332 45 75 179 209 254 253 69 41 206 89
253 90 l32 0 0 -64z m1824 -420 c18 -8 46 -31 62 -52 24 -31 29 -47 29 -95 0
-62 -17 -94 -69 -133 -27 -21 -39 -21 -704 -24 -457 -2 -689 0 -714 8 -45 13
-95 68 -104 115 -14 75 24 152 91 181 46 20 1361 20 1409 0z m336 -522 c0 -31
-5 -75 -12 -98 -16 -55 -99 -138 -154 -154 -60 -18 -4088 -18 -4148 0 -55 16
-138 99 -154 154 -7 23 -12 67 -12 98 l0 56 2240 0 2240 0 0 -56z"/>
</g>
</svg>
