<?xml version="1.0" standalone="no"?>
<!DOCTYPE svg PUBLIC "-//W3C//DTD SVG 20010904//EN"
 "http://www.w3.org/TR/2001/REC-SVG-20010904/DTD/svg10.dtd">
<svg version="1.0" xmlns="http://www.w3.org/2000/svg"
 width="512.000000pt" height="512.000000pt" viewBox="0 0 512.000000 512.000000"
 preserveAspectRatio="xMidYMid meet">

<g transform="translate(0.000000,512.000000) scale(0.100000,-0.100000)"
fill="#000000" stroke="none">
<path fill="#cdd44b" d="M3155 4861 c-16 -10 -61 -55 -100 -100 -277 -326 -345 -605 -200
-819 44 -65 138 -136 211 -159 l54 -17 0 -128 c0 -70 -3 -128 -7 -128 -5 0
-141 -15 -304 -34 -332 -37 -347 -41 -386 -115 -23 -44 -23 -48 -23 -383 l0
-338 -788 0 c-675 0 -796 -2 -847 -15 -256 -67 -415 -329 -350 -580 23 -87 70
-167 135 -230 l59 -55 -60 -57 c-168 -160 -196 -418 -65 -612 l33 -49 -88 -4
c-94 -3 -121 -15 -163 -72 -19 -25 -21 -42 -21 -165 0 -136 0 -138 29 -175 40
-53 78 -66 191 -66 l95 0 0 -135 c0 -131 1 -137 25 -160 24 -25 26 -25 215
-25 189 0 191 0 215 25 24 23 25 29 25 160 l0 135 1520 0 1520 0 0 -135 c0
-131 1 -137 25 -160 24 -25 26 -25 215 -25 189 0 191 0 215 25 24 23 25 29 25
159 l0 134 109 4 c118 3 141 12 185 72 18 23 21 45 24 150 4 143 -6 178 -64
222 -37 29 -39 29 -192 32 l-155 3 36 30 c47 38 118 147 151 230 38 99 56 182
63 301 6 106 6 106 -22 133 -27 28 -27 28 -134 22 -58 -4 -142 -16 -186 -28
-118 -31 -112 -33 -143 41 -40 98 -93 185 -166 277 l-66 81 0 666 c0 540 -3
673 -14 699 -17 43 -68 85 -111 93 -28 5 -378 -28 -552 -52 l-43 -6 0 119 0
120 43 13 c113 33 200 108 254 217 32 65 37 86 41 162 9 180 -74 367 -261 589
-115 136 -141 151 -202 113z m128 -276 c192 -253 228 -454 104 -583 -54 -57
-102 -77 -187 -77 -90 0 -138 22 -197 89 -89 101 -84 248 13 422 45 83 173
246 187 241 7 -2 42 -44 80 -92z m557 -1807 l-1 -653 -69 -85 c-69 -84 -180
-283 -180 -323 0 -22 3 -22 -125 12 -44 12 -128 25 -187 28 -104 6 -106 6
-132 -20 -23 -23 -26 -34 -26 -95 0 -215 99 -474 218 -572 l37 -30 -267 0
-267 0 34 50 c132 195 105 452 -64 613 l-60 57 59 55 c194 186 199 481 12 677
-57 60 -161 121 -228 134 l-34 6 0 329 c0 306 1 329 18 330 9 0 287 31 617 69
330 37 610 68 623 69 l22 1 0 -652z m-1230 -326 c72 -35 114 -75 151 -144 31
-58 34 -70 33 -148 0 -72 -4 -93 -26 -136 -39 -75 -70 -107 -140 -145 l-63
-34 -885 0 -885 0 -63 34 c-69 38 -110 80 -144 151 -17 35 -22 64 -22 130 -1
74 3 92 27 137 35 68 88 120 151 149 62 29 81 31 71 7 -17 -43 -17 -121 -1
-178 14 -45 29 -69 70 -110 88 -88 53 -85 853 -85 l694 0 24 25 c30 29 32 74
6 106 l-19 24 -706 5 -706 5 -32 33 c-28 28 -33 39 -33 81 0 52 26 93 70 112
11 4 360 7 775 6 l755 -2 45 -23z m1352 -531 c47 -61 112 -181 133 -247 l16
-51 -64 -64 c-35 -35 -77 -88 -93 -116 -16 -29 -32 -53 -36 -53 -3 0 -21 26
-39 58 -17 31 -59 84 -92 116 l-61 59 24 68 c13 38 39 95 58 126 38 65 103
153 112 153 3 -1 22 -23 42 -49z m-1352 -269 c72 -35 114 -75 151 -144 31 -58
34 -70 33 -148 0 -72 -4 -93 -26 -136 -39 -75 -70 -107 -140 -145 l-63 -34
-885 0 -885 0 -63 34 c-69 38 -110 80 -144 151 -17 35 -22 64 -22 130 -1 78 2
90 33 149 22 39 52 76 79 96 43 33 128 72 137 63 3 -2 0 -20 -5 -39 -27 -93 1
-191 74 -265 88 -87 53 -84 853 -84 l694 0 24 25 c30 29 32 74 6 106 l-19 24
-706 5 -706 5 -32 33 c-28 28 -33 39 -33 81 0 52 26 93 70 112 11 4 360 7 775
6 l755 -2 45 -23z m840 -83 c228 -61 344 -208 384 -487 l6 -42 -42 6 c-297 43
-444 172 -499 437 -10 51 -19 98 -19 106 0 16 59 10 170 -20z m1106 4 c-3 -16
-8 -48 -12 -73 -17 -117 -90 -259 -165 -323 -70 -61 -213 -116 -337 -130 l-44
-5 7 51 c39 284 179 439 445 492 104 21 113 20 106 -12z m164 -773 l0 -80
-2160 0 -2160 0 0 80 0 80 2160 0 2160 0 0 -80z m-3840 -320 l0 -80 -80 0 -80
0 0 80 0 80 80 0 80 0 0 -80z m3520 0 l0 -80 -80 0 -80 0 0 80 0 80 80 0 80 0
0 -80z"/>
</g>
</svg>
